<svg width="7811" height="1830" viewBox="0 0 7811 1830" fill="none" xmlns="http://www.w3.org/2000/svg">
<path d="M2791.69 1096.86C2724.36 1096.86 2664.64 1083.83 2612.52 1057.77C2560.4 1031.71 2519.49 996.233 2489.81 951.35C2460.13 906.466 2445.29 855.068 2445.29 797.154C2445.29 739.24 2460.13 687.841 2489.81 642.957C2519.49 598.074 2560.4 562.602 2612.52 536.54C2664.64 510.479 2724.36 497.448 2791.69 497.448C2858.29 497.448 2917.29 510.479 2968.69 536.54C3020.81 562.602 3061.71 598.074 3091.4 642.957C3121.08 687.841 3135.92 739.24 3135.92 797.154C3135.92 855.068 3121.08 906.466 3091.4 951.35C3061.71 996.233 3020.81 1031.71 2968.69 1057.77C2917.29 1083.83 2858.29 1096.86 2791.69 1096.86ZM2791.69 947.006C2822.82 947.006 2851.05 940.491 2876.39 927.46C2902.45 914.43 2922.72 896.693 2937.2 874.252C2952.4 851.81 2959.64 826.111 2958.92 797.154C2959.64 768.197 2952.4 742.135 2937.2 718.97C2922.72 695.804 2902.45 678.068 2876.39 665.761C2851.05 652.73 2822.82 646.215 2791.69 646.215C2759.84 646.215 2730.52 652.73 2703.73 665.761C2677.67 678.792 2657.4 696.528 2642.92 718.97C2628.44 741.411 2621.21 767.473 2621.21 797.154C2621.21 826.111 2628.44 851.81 2642.92 874.252C2657.4 896.693 2677.67 914.43 2703.73 927.46C2730.52 940.491 2759.84 947.006 2791.69 947.006ZM3351.19 1086V509.393H3516.25L3523.85 708.111L3482.59 687.479C3492 652.007 3508.29 620.154 3531.45 591.921C3555.34 562.964 3582.49 540.16 3612.89 523.51C3644.02 506.135 3676.96 497.448 3711.71 497.448C3730.53 497.448 3748.27 499.258 3764.92 502.878C3782.29 506.497 3797.13 511.203 3809.44 516.994L3761.66 707.025C3750.8 699.062 3735.96 692.908 3717.14 688.565C3699.04 684.221 3680.58 682.049 3661.76 682.049C3640.76 682.049 3621.58 685.669 3604.21 692.908C3587.56 699.424 3573.44 708.835 3561.86 721.141C3550.27 732.724 3541.22 746.117 3534.71 761.319C3528.92 776.522 3526.02 792.81 3526.02 810.184V1086H3351.19ZM4013.11 1086V509.393H4187.94V1086H4013.11ZM4099.98 391.031C4067.41 391.031 4042.07 383.43 4023.97 368.228C4005.87 352.301 3996.82 329.86 3996.82 300.903C3996.82 274.841 4005.87 253.485 4023.97 236.835C4042.79 220.185 4068.13 211.86 4099.98 211.86C4132.56 211.86 4157.9 219.823 4175.99 235.749C4194.09 250.952 4203.14 272.669 4203.14 300.903C4203.14 327.688 4193.73 349.406 4174.91 366.056C4156.81 382.706 4131.83 391.031 4099.98 391.031ZM4758.83 1335.75C4701.64 1335.75 4648.43 1328.52 4599.2 1314.04C4550.7 1300.28 4510.88 1282.91 4479.75 1261.91L4539.48 1138.12C4555.4 1146.81 4573.14 1155.13 4592.69 1163.1C4612.96 1171.06 4635.04 1177.58 4658.93 1182.64C4682.82 1188.44 4708.88 1191.33 4737.11 1191.33C4774.03 1191.33 4805.16 1185.18 4830.5 1172.87C4856.56 1160.56 4876.1 1141.74 4889.13 1116.4C4902.89 1091.79 4909.77 1061.39 4909.77 1025.19V945.92L4943.43 951.35C4937.64 974.515 4923.16 995.871 4899.99 1015.42C4876.83 1034.96 4847.87 1050.89 4813.12 1063.2C4778.37 1075.5 4741.45 1081.66 4702.36 1081.66C4645.17 1081.66 4594.86 1069.71 4551.42 1045.82C4507.99 1021.21 4473.6 987.546 4448.26 944.834C4423.65 901.399 4411.34 851.448 4411.34 794.982C4411.34 737.068 4424.01 686.031 4449.35 641.872C4474.69 596.988 4509.44 561.878 4553.59 536.54C4597.75 510.479 4648.79 497.448 4706.71 497.448C4726.25 497.448 4746.52 499.982 4767.51 505.05C4789.23 509.393 4810.23 515.547 4830.5 523.51C4851.49 530.749 4870.31 540.16 4886.96 551.743C4904.34 562.602 4918.45 574.908 4929.31 588.663C4940.9 601.694 4947.41 615.81 4948.86 631.013L4913.02 639.7L4920.63 509.393H5084.59V1021.93C5084.59 1073.33 5076.27 1118.21 5059.62 1156.58C5043.69 1195.67 5021.25 1228.61 4992.29 1255.4C4963.34 1282.18 4928.59 1302.09 4888.05 1315.12C4848.23 1328.88 4805.16 1335.75 4758.83 1335.75ZM4752.31 947.006C4784.89 947.006 4813.48 940.853 4838.1 928.546C4862.71 915.515 4881.53 897.779 4894.56 875.338C4908.32 852.896 4915.2 826.473 4915.2 796.068C4915.2 765.663 4908.32 739.24 4894.56 716.798C4881.53 693.632 4862.71 675.896 4838.1 663.589C4813.48 650.559 4784.89 644.043 4752.31 644.043C4718.29 644.043 4688.61 650.559 4663.27 663.589C4637.93 675.896 4618.39 693.632 4604.63 716.798C4590.88 739.24 4584 765.663 4584 796.068C4584 826.473 4590.88 852.896 4604.63 875.338C4618.39 897.779 4637.93 915.515 4663.27 928.546C4688.61 940.853 4718.29 947.006 4752.31 947.006ZM5571.64 1095.77C5514.45 1095.77 5464.5 1083.1 5421.79 1057.77C5379.08 1032.43 5345.41 997.319 5320.8 952.436C5296.91 906.828 5284.97 855.068 5284.97 797.154C5284.97 738.516 5297.27 686.755 5321.89 641.872C5346.5 596.988 5380.52 561.878 5423.96 536.54C5468.12 510.479 5518.79 497.448 5575.98 497.448C5608.56 497.448 5638.6 501.792 5666.11 510.479C5693.62 518.442 5717.51 529.663 5737.78 544.142C5758.78 558.62 5775.79 574.546 5788.82 591.921C5802.57 609.295 5811.62 627.393 5815.97 646.215H5777.96V509.393H5949.53V1086H5774.7V938.319L5811.62 943.749C5807.28 962.571 5798.23 981.031 5784.48 999.129C5770.72 1017.23 5752.98 1033.52 5731.27 1047.99C5709.55 1062.47 5684.94 1074.06 5657.43 1082.74C5630.64 1091.43 5602.05 1095.77 5571.64 1095.77ZM5618.33 949.178C5650.91 949.178 5679.14 943.025 5703.03 930.718C5727.65 918.411 5746.47 901.037 5759.5 878.595C5773.25 855.43 5780.13 828.282 5780.13 797.154C5780.13 766.749 5773.25 740.325 5759.5 717.884C5746.47 694.718 5727.65 676.62 5703.03 663.589C5679.14 650.559 5650.91 644.043 5618.33 644.043C5585.76 644.043 5557.52 650.559 5533.63 663.589C5509.75 676.62 5490.92 694.718 5477.17 717.884C5464.14 740.325 5457.62 766.749 5457.62 797.154C5457.62 828.282 5464.14 855.43 5477.17 878.595C5490.92 901.037 5509.75 918.411 5533.63 930.718C5557.52 943.025 5585.76 949.178 5618.33 949.178ZM6213.21 1086V509.393H6378.27L6383.7 631.013L6352.21 623.411C6361.62 606.037 6373.93 589.749 6389.13 574.546C6405.05 559.344 6422.79 546.313 6442.34 535.454C6462.61 523.872 6484.32 514.823 6507.49 508.307C6530.66 501.792 6555.63 498.534 6582.42 498.534C6613.55 498.534 6642.14 503.24 6668.2 512.651C6694.99 522.062 6717.79 537.626 6736.61 559.344C6755.43 580.338 6769.91 608.571 6780.05 644.043L6744.21 639.7L6752.9 622.326C6764.48 605.675 6778.24 590.111 6794.16 575.632C6810.81 560.43 6829.64 547.399 6850.63 536.54C6871.62 524.958 6894.07 515.908 6917.96 509.393C6941.85 502.154 6966.46 498.534 6991.8 498.534C7044.64 498.534 7087.72 508.669 7121.02 528.939C7154.32 548.485 7178.93 576.356 7194.86 612.553C7210.78 648.749 7218.75 690.737 7218.75 738.516V1086H7043.92V756.976C7043.92 733.81 7040.3 713.902 7033.06 697.252C7025.82 680.602 7014.6 667.933 6999.4 659.246C6984.92 649.835 6966.1 645.129 6942.93 645.129C6922.66 645.129 6903.84 648.387 6886.47 654.902C6869.81 661.418 6854.97 670.467 6841.94 682.049C6829.64 692.908 6819.86 705.939 6812.62 721.141C6806.11 735.62 6802.85 751.546 6802.85 768.921V1086H6628.02V755.89C6628.02 733.448 6624.04 713.902 6616.08 697.252C6608.12 680.602 6595.81 667.933 6579.16 659.246C6562.51 649.835 6541.88 645.129 6517.26 645.129C6497.72 645.129 6479.98 648.749 6464.05 655.988C6448.85 662.503 6435.46 671.553 6423.88 683.135C6412.29 693.994 6403.24 705.939 6396.73 718.97C6390.94 732 6388.04 745.393 6388.04 759.148V1086H6213.21ZM7490.29 1086V509.393H7665.11V1086H7490.29ZM7577.16 391.031C7544.58 391.031 7519.24 383.43 7501.15 368.228C7483.05 352.301 7474 329.86 7474 300.903C7474 274.841 7483.05 253.485 7501.15 236.835C7519.97 220.185 7545.31 211.86 7577.16 211.86C7609.73 211.86 7635.07 219.823 7653.17 235.749C7671.27 250.952 7680.32 272.669 7680.32 300.903C7680.32 327.688 7670.91 349.406 7652.08 366.056C7633.99 382.706 7609.01 391.031 7577.16 391.031Z" fill="#252525"/>
<path d="M2465.39 1695.14C2456.46 1695.14 2449.58 1692.72 2444.74 1687.88C2440.27 1683.05 2438.04 1676.16 2438.04 1667.23C2438.04 1659.41 2440.46 1652.9 2445.3 1647.69C2450.13 1642.11 2456.83 1639.32 2465.39 1639.32C2474.33 1639.32 2481.02 1641.73 2485.49 1646.57C2490.33 1651.41 2492.75 1658.3 2492.75 1667.23C2492.75 1675.04 2490.33 1681.74 2485.49 1687.33C2480.65 1692.54 2473.95 1695.14 2465.39 1695.14ZM2634.24 1689.56V1276.44H2662.15V1689.56H2634.24ZM2917.33 1695.14C2886.07 1695.14 2858.9 1688.82 2835.82 1676.16C2812.75 1663.13 2794.7 1645.27 2781.67 1622.57C2768.64 1599.86 2762.13 1573.81 2762.13 1544.41C2762.13 1515.01 2768.83 1488.95 2782.23 1466.25C2796 1443.18 2814.42 1425.13 2837.5 1412.1C2860.94 1399.07 2887.37 1392.56 2916.77 1392.56C2934.64 1392.56 2951.38 1395.17 2967.02 1400.38C2983.02 1405.21 2997.16 1412.1 3009.44 1421.03C3022.1 1429.96 3032.52 1440.01 3040.71 1451.18C3048.9 1461.97 3054.11 1473.51 3056.34 1485.79L3044.62 1479.65L3047.41 1399.26H3073.65V1689.56H3046.29V1612.52L3056.34 1600.79C3053.36 1613.45 3047.59 1625.54 3039.03 1637.08C3030.84 1648.25 3020.61 1658.3 3008.33 1667.23C2996.05 1675.79 2982.09 1682.67 2966.46 1687.88C2950.83 1692.72 2934.45 1695.14 2917.33 1695.14ZM2920.68 1667.23C2944.87 1667.23 2966.64 1662.02 2986 1651.6C3005.35 1640.8 3020.61 1626.29 3031.78 1608.05C3042.94 1589.44 3048.52 1568.04 3048.52 1543.85C3048.52 1520.4 3042.94 1499.38 3031.78 1480.77C3020.98 1462.16 3005.91 1447.46 2986.56 1436.66C2967.2 1425.5 2945.24 1419.92 2920.68 1419.92C2895.37 1419.92 2873.04 1425.5 2853.69 1436.66C2834.33 1447.46 2819.07 1462.16 2807.91 1480.77C2797.12 1499.38 2791.72 1520.4 2791.72 1543.85C2791.72 1567.67 2796.93 1588.89 2807.35 1607.49C2818.14 1626.1 2833.22 1640.8 2852.57 1651.6C2871.92 1662.02 2894.63 1667.23 2920.68 1667.23ZM3372.92 1695.14C3356.17 1695.14 3340.35 1693.1 3325.46 1689C3310.95 1684.54 3297.55 1678.39 3285.27 1670.58C3272.99 1662.39 3262.38 1652.53 3253.45 1640.99C3244.89 1629.45 3238.37 1617.17 3233.91 1604.14L3246.19 1613.63L3243.4 1689.56H3216.6V1276.44H3244.51V1472.39L3234.47 1482.44C3239.3 1469.42 3246 1457.32 3254.56 1446.15C3263.12 1434.62 3273.54 1424.94 3285.83 1417.12C3298.11 1409.31 3311.69 1403.35 3326.58 1399.26C3341.47 1394.79 3357.47 1392.56 3374.59 1392.56C3402.88 1392.56 3428.37 1399.07 3451.07 1412.1C3473.78 1425.13 3491.83 1443.18 3505.23 1466.25C3518.63 1488.95 3525.32 1515.01 3525.32 1544.41C3525.32 1573.07 3518.63 1598.75 3505.23 1621.45C3492.2 1644.15 3474.15 1662.2 3451.07 1675.6C3428.37 1688.63 3402.32 1695.14 3372.92 1695.14ZM3370.13 1667.23C3395.06 1667.23 3416.83 1661.83 3435.44 1651.04C3454.42 1640.25 3469.31 1625.54 3480.1 1606.94C3490.9 1588.33 3496.29 1567.3 3496.29 1543.85C3496.29 1519.66 3490.71 1498.45 3479.55 1480.21C3468.75 1461.6 3453.87 1446.9 3434.88 1436.11C3415.9 1425.31 3394.5 1419.92 3370.68 1419.92C3345 1419.92 3322.49 1425.31 3303.13 1436.11C3283.78 1446.9 3268.71 1461.6 3257.91 1480.21C3247.12 1498.45 3241.72 1519.47 3241.72 1543.29C3241.72 1567.48 3247.31 1588.89 3258.47 1607.49C3269.64 1626.1 3284.9 1640.8 3304.25 1651.6C3323.6 1662.02 3345.56 1667.23 3370.13 1667.23Z" fill="#252525"/>
<path fill-rule="evenodd" clip-rule="evenodd" d="M1083 137L1373 628L1276 900H889L796 628L1083 137ZM669 628H0L870 1692L1083 1561L1296 1692L2166 628H1497L1305.31 1060H860.691L669 628Z" fill="url(#paint0_linear_20_557)"/>
<path d="M1305 1060H860L1083 1561L1305 1060Z" fill="#2D4A4C"/>
<path d="M222.521 900L0.0214844 628H669.021L222.521 900Z" fill="#2D4A4C"/>
<path d="M2166.02 628H1497.02L1943.52 900L2166.02 628Z" fill="#2D4A4C"/>
<path d="M1230 386L1081.52 630.5L937.5 386L1083.02 137L1230 386Z" fill="#2D4A4C"/>
<defs>
<linearGradient id="paint0_linear_20_557" x1="1084.5" y1="137" x2="1083" y2="1896.5" gradientUnits="userSpaceOnUse">
<stop stop-color="#00AF69"/>
<stop offset="1" stop-color="#284D4B"/>
</linearGradient>
</defs>
</svg>
